<svg width="32" height="32" viewBox="0 0 32 32" fill="none" xmlns="http://www.w3.org/2000/svg">
<g clip-path="url(#clip0_8023_210)">
<path d="M31.344 0.00401357C25.0973 -0.107986 17.9733 3.15735 13.464 8.22268C9.15468 8.30401 4.95868 10.0707 1.86935 13.16C1.68935 13.3373 1.62535 13.6027 1.70401 13.8427C1.78401 14.084 1.99201 14.2587 2.24268 14.2947L7.38135 15.0307L6.74668 15.7413C6.51068 16.0053 6.52268 16.4067 6.77335 16.6573L15.3427 25.2267C15.472 25.356 15.6427 25.4213 15.8147 25.4213C15.9733 25.4213 16.132 25.3653 16.2587 25.252L16.9693 24.6173L17.7053 29.756C17.7413 30.0067 17.9387 30.1907 18.1773 30.2707C18.2387 30.2907 18.3027 30.3 18.368 30.3C18.5573 30.3 18.7507 30.2173 18.884 30.0853C21.9307 27.0387 23.6973 22.8427 23.7787 18.5333C28.8493 14.0147 32.1413 6.89335 31.996 0.65468C31.9867 0.300014 31.7 0.0133469 31.344 0.00401357ZM25.2 11.5133C24.5507 12.1627 23.6973 12.488 22.8427 12.488C21.988 12.488 21.1347 12.1627 20.4853 11.5133C19.1867 10.2133 19.1867 8.09868 20.4853 6.79868C21.7853 5.49868 23.9 5.49868 25.2 6.79868C26.5 8.09868 26.5 10.2147 25.2 11.5133Z" fill="white"/>
<path d="M3.63208 22.5399C2.20541 23.9666 0.246743 30.412 0.0280765 31.1413C-0.0425901 31.3759 0.0227432 31.6306 0.194743 31.8039C0.322743 31.9319 0.492077 31.9999 0.666743 31.9999C0.730743 31.9999 0.794743 31.9906 0.858743 31.9719C1.58808 31.7533 8.03341 29.7946 9.46008 28.3679C11.0667 26.7613 11.0667 24.1466 9.46008 22.5399C7.85208 20.9333 5.23874 20.9346 3.63208 22.5399Z" fill="white"/>
</g>
<defs>
<clipPath id="clip0_8023_210">
<rect width="32" height="32" fill="white"/>
</clipPath>
</defs>
</svg>
