<svg width="32" height="32" viewBox="0 0 32 32" fill="none" xmlns="http://www.w3.org/2000/svg">
<path d="M23.9999 1.33325H7.99992C6.23246 1.33537 4.538 2.03843 3.28821 3.28821C2.03843 4.538 1.33537 6.23246 1.33325 7.99992V18.6666C1.33519 20.2029 1.86671 21.6915 2.83821 22.8816C3.80971 24.0717 5.1618 24.8905 6.66659 25.1999V29.3333C6.66655 29.5746 6.73205 29.8115 6.85609 30.0186C6.98013 30.2257 7.15806 30.3952 7.3709 30.5091C7.58374 30.623 7.8235 30.6769 8.06461 30.6652C8.30571 30.6535 8.53912 30.5766 8.73992 30.4426L16.3999 25.3333H23.9999C25.7674 25.3311 27.4618 24.6281 28.7116 23.3783C29.9614 22.1285 30.6645 20.434 30.6666 18.6666V7.99992C30.6645 6.23246 29.9614 4.538 28.7116 3.28821C27.4618 2.03843 25.7674 1.33537 23.9999 1.33325ZM21.3333 17.3333H10.6666C10.313 17.3333 9.97383 17.1928 9.72378 16.9427C9.47373 16.6927 9.33325 16.3535 9.33325 15.9999C9.33325 15.6463 9.47373 15.3072 9.72378 15.0571C9.97383 14.8071 10.313 14.6666 10.6666 14.6666H21.3333C21.6869 14.6666 22.026 14.8071 22.2761 15.0571C22.5261 15.3072 22.6666 15.6463 22.6666 15.9999C22.6666 16.3535 22.5261 16.6927 22.2761 16.9427C22.026 17.1928 21.6869 17.3333 21.3333 17.3333ZM23.9999 11.9999H7.99992C7.6463 11.9999 7.30716 11.8594 7.05711 11.6094C6.80706 11.3593 6.66659 11.0202 6.66659 10.6666C6.66659 10.313 6.80706 9.97383 7.05711 9.72378C7.30716 9.47373 7.6463 9.33325 7.99992 9.33325H23.9999C24.3535 9.33325 24.6927 9.47373 24.9427 9.72378C25.1928 9.97383 25.3333 10.313 25.3333 10.6666C25.3333 11.0202 25.1928 11.3593 24.9427 11.6094C24.6927 11.8594 24.3535 11.9999 23.9999 11.9999Z" fill="white"/>
</svg>
