<svg width="32" height="32" viewBox="0 0 32 32" fill="none" xmlns="http://www.w3.org/2000/svg">
<path fill-rule="evenodd" clip-rule="evenodd" d="M16 3C8.82 3 3 8.82 3 16C3 23.18 8.82 29 16 29C23.18 29 29 23.18 29 16C29 8.82 23.18 3 16 3ZM12.5 11C11.78 11 11.396 11.5587 11.252 11.8453C11.0809 12.2059 10.9947 12.6009 11 13C11 13.3973 11.0787 13.8067 11.252 14.1547C11.396 14.4413 11.7787 15 12.5 15C13.22 15 13.604 14.4413 13.748 14.1547C13.9213 13.808 14 13.3973 14 13C14 12.6027 13.9213 12.1933 13.748 11.8453C13.604 11.5587 13.2213 11 12.5 11ZM18.252 11.8453C18.396 11.5587 18.7787 11 19.5 11C20.22 11 20.604 11.5587 20.748 11.8453C20.9213 12.192 21 12.6027 21 13C21 13.3973 20.9213 13.8067 20.748 14.1547C20.604 14.4413 20.2213 15 19.5 15C18.78 15 18.396 14.4413 18.252 14.1547C18.0809 13.7941 17.9947 13.3991 18 13C18 12.6027 18.0787 12.1933 18.252 11.8453ZM20.9493 20.9493C21.0476 20.8578 21.1264 20.7474 21.181 20.6247C21.2357 20.5021 21.2651 20.3696 21.2675 20.2354C21.2698 20.1011 21.2451 19.9677 21.1948 19.8432C21.1445 19.7187 21.0697 19.6056 20.9747 19.5106C20.8798 19.4157 20.7666 19.3408 20.6421 19.2905C20.5176 19.2402 20.3842 19.2155 20.25 19.2179C20.1157 19.2202 19.9833 19.2496 19.8606 19.3043C19.738 19.3589 19.6276 19.4378 19.536 19.536C19.0717 20.0004 18.5204 20.3688 17.9137 20.6202C17.307 20.8716 16.6567 21.0009 16 21.0009C15.3433 21.0009 14.693 20.8716 14.0863 20.6202C13.4796 20.3688 12.9283 20.0004 12.464 19.536C12.2744 19.3594 12.0237 19.2632 11.7646 19.2678C11.5056 19.2723 11.2584 19.3773 11.0752 19.5605C10.892 19.7437 10.787 19.9909 10.7824 20.25C10.7779 20.509 10.874 20.7598 11.0507 20.9493C12.3634 22.2618 14.1437 22.9992 16 22.9992C17.8563 22.9992 19.6366 22.2618 20.9493 20.9493Z" fill="white"/>
</svg>
