<svg width="32" height="32" viewBox="0 0 32 32" fill="none" xmlns="http://www.w3.org/2000/svg">
<g clip-path="url(#clip0_8025_15231)">
<path d="M2.94092 18.875H0.940918C0.42273 18.875 0.00341797 19.2943 0.00341797 19.8125V31.0625C0.00341797 31.5807 0.42273 32 0.940918 32H2.94092C4.49179 32 5.75342 30.7384 5.75342 29.1875V21.6875C5.75342 20.1366 4.49186 18.875 2.94092 18.875Z" fill="white"/>
<path d="M31.722 20.6939C31.6095 20.5065 31.4596 20.3564 31.2909 20.2252C30.6005 19.6213 29.4375 19.6784 28.7597 20.4127L24.5034 25.3252L24.3721 25.4752C23.8472 26.0564 23.0971 26.3752 22.3097 26.3752H15.0347C14.5096 26.3752 14.0972 25.9627 14.0972 25.4377C14.0972 24.9127 14.5096 24.5002 15.0347 24.5002H20.7534C21.7847 24.5002 22.6284 23.6565 22.6284 22.6252V22.6065C22.6097 21.5752 21.7847 20.7502 20.7534 20.7502H17.3597C16.7974 20.7502 16.1949 20.5438 15.7097 20.1314C13.4222 18.1252 10.0847 17.9939 7.62842 19.7002V31.2314C9.48467 31.7377 11.3972 32.0002 13.3284 32.0002H21.6909C23.7534 32.0002 25.7034 31.0252 26.9409 29.3752L31.441 23.3752C32.0974 22.5134 32.1469 21.3315 31.722 20.6939Z" fill="white"/>
<path d="M25.1415 1.81219C24.1017 0.643563 22.6603 0 21.0828 0C19.322 0 17.7957 0.832562 16.6689 2.40762C16.5844 2.52569 16.5054 2.64381 16.4313 2.76069C16.3573 2.64375 16.2782 2.52569 16.1937 2.40762C15.0669 0.832562 13.5406 0 11.7799 0C10.2024 0 8.76092 0.643562 7.72117 1.81212C6.73442 2.92112 6.19092 4.40369 6.19092 5.98675C6.19092 7.70706 6.85848 9.2945 8.2916 10.9826C9.54217 12.4554 11.3359 13.9694 13.4127 15.7224C14.1802 16.3702 14.9739 17.0401 15.8173 17.771C15.9935 17.9237 16.2124 18.0001 16.4313 18.0001C16.6502 18.0001 16.8691 17.9237 17.0453 17.771C17.8885 17.0402 18.6821 16.3704 19.4496 15.7227C20.7835 14.5968 21.9354 13.6246 22.935 12.6814C24.8759 10.8503 26.6717 8.77188 26.6717 5.98681C26.6717 4.40375 26.1283 2.92119 25.1415 1.81219Z" fill="white"/>
</g>
<defs>
<clipPath id="clip0_8025_15231">
<rect width="32" height="32" fill="white"/>
</clipPath>
</defs>
</svg>
