<svg width="32" height="32" viewBox="0 0 32 32" fill="none" xmlns="http://www.w3.org/2000/svg">
<path fill-rule="evenodd" clip-rule="evenodd" d="M15.1913 3.23661C15.6843 2.92113 16.3156 2.92113 16.8085 3.23661L29.3085 11.2366C30.0063 11.6832 30.21 12.6108 29.7633 13.3086C29.3167 14.0064 28.389 14.21 27.6912 13.7634L26.5 13.0009V25C26.5 27.2093 24.7091 29 22.5 29H9.49995C7.2908 29 5.49995 27.2093 5.49995 25V13.0009L4.30853 13.7634C3.61075 14.21 2.6831 14.0064 2.23654 13.3086C1.78997 12.6108 1.9936 11.6832 2.69135 11.2366L15.1913 3.23661ZM11 17.75C11 18.4891 11.2915 19.1602 11.766 19.6543L15.2836 23.2647C15.6761 23.6677 16.3237 23.6676 16.7162 23.2646L20.1628 19.7258C20.679 19.2258 21 18.5254 21 17.75C21 16.2312 19.7687 15 18.25 15C17.3198 15 16.4976 16.0242 16 16.731C15.5023 16.0242 14.68 15 13.75 15C12.2312 15 11 16.2312 11 17.75Z" fill="white"/>
</svg>
