<svg width="32" height="32" viewBox="0 0 32 32" fill="none" xmlns="http://www.w3.org/2000/svg">
<path fill-rule="evenodd" clip-rule="evenodd" d="M19.4866 2.12672C19.6818 2.23538 19.835 2.4063 19.9218 2.61219C20.0086 2.81809 20.0239 3.04711 19.9653 3.26272L17.3093 13.0001H26.9999C27.1948 13.0001 27.3855 13.057 27.5484 13.1639C27.7113 13.2708 27.8395 13.423 27.9171 13.6018C27.9947 13.7805 28.0184 13.9781 27.9853 14.1701C27.9522 14.3621 27.8636 14.5403 27.7306 14.6827L13.7306 29.6827C13.5781 29.8465 13.3751 29.9543 13.1541 29.9891C12.9331 30.0238 12.7068 29.9834 12.5114 29.8744C12.3161 29.7653 12.1629 29.5939 12.0765 29.3875C11.99 29.1812 11.9753 28.9518 12.0346 28.7361L14.6906 19.0001H4.99994C4.80506 19 4.61442 18.9431 4.45148 18.8362C4.28853 18.7293 4.16037 18.5771 4.08275 18.3984C4.00512 18.2196 3.98143 18.0221 4.01456 17.83C4.0477 17.638 4.13623 17.4598 4.26927 17.3174L18.2693 2.31739C18.4218 2.15425 18.6245 2.04685 18.8451 2.01229C19.0657 1.97774 19.2915 2.01802 19.4866 2.12672Z" fill="white"/>
</svg>
