<svg width="32" height="32" viewBox="0 0 32 32" fill="none" xmlns="http://www.w3.org/2000/svg">
<path d="M18 5.41331C18 3.63198 15.8453 2.73998 14.5867 3.99998L8.58668 9.99998H6.01068C4.48934 9.99998 2.92001 10.8853 2.46401 12.54C2.15465 13.6672 1.99858 14.831 2.00001 16C2.00001 17.1973 2.16134 18.3573 2.46668 19.46C2.92134 21.1133 4.49068 22 6.01201 22H8.58534L14.5853 28C15.8453 29.26 18 28.368 18 26.5866V5.41331ZM24.7787 6.80798C24.9662 6.62071 25.2203 6.51552 25.4853 6.51552C25.7503 6.51552 26.0045 6.62071 26.192 6.80798C31.2693 11.884 31.2693 20.1146 26.192 25.192C26.0024 25.3686 25.7517 25.4648 25.4926 25.4602C25.2336 25.4556 24.9864 25.3507 24.8032 25.1675C24.62 24.9843 24.515 24.7371 24.5104 24.478C24.5059 24.2189 24.602 23.9682 24.7787 23.7786C25.8003 22.7572 26.6106 21.5445 27.1635 20.2098C27.7164 18.8751 28.001 17.4446 28.001 16C28.001 14.5553 27.7164 13.1248 27.1635 11.7901C26.6106 10.4555 25.8003 9.24277 24.7787 8.22131C24.5914 8.03381 24.4862 7.77964 24.4862 7.51464C24.4862 7.24964 24.5914 6.99548 24.7787 6.80798Z" fill="white"/>
<path d="M21.2428 10.3427C21.3356 10.2498 21.4459 10.176 21.5673 10.1257C21.6886 10.0754 21.8187 10.0496 21.9501 10.0496C22.0815 10.0496 22.2116 10.0754 22.3329 10.1257C22.4543 10.176 22.5646 10.2498 22.6574 10.3427C23.4005 11.0856 23.9899 11.9675 24.392 12.9382C24.7941 13.9089 25.0011 14.9493 25.0011 16C25.0011 17.0507 24.7941 18.0911 24.392 19.0618C23.9899 20.0325 23.4005 20.9145 22.6574 21.6573C22.4688 21.8394 22.2161 21.9401 21.9539 21.9377C21.6917 21.9353 21.441 21.83 21.2556 21.6445C21.0703 21.459 20.9653 21.2081 20.9631 20.946C20.9609 20.6838 21.0619 20.4312 21.2441 20.2427C21.8013 19.6855 22.2432 19.0241 22.5448 18.2961C22.8463 17.5682 23.0015 16.788 23.0015 16C23.0015 15.2121 22.8463 14.4319 22.5448 13.7039C22.2432 12.9759 21.8013 12.3145 21.2441 11.7573C21.0568 11.5698 20.9517 11.3157 20.9517 11.0507C20.9517 10.7857 21.0568 10.5315 21.2441 10.344L21.2428 10.3427Z" fill="white"/>
</svg>
