<svg width="32" height="32" viewBox="0 0 32 32" fill="none" xmlns="http://www.w3.org/2000/svg">
<path d="M25.5726 9.50986L19.9658 3.76786C19.2819 3.0843 18.3247 2.67415 17.2307 2.67415H9.16232C7.11103 2.53743 5.33325 4.31472 5.33325 6.36543V25.5054C5.33325 27.5561 6.97428 29.3334 9.16232 29.3334H22.8375C24.8889 29.3334 26.6666 27.6929 26.6666 25.5054V12.1074C26.6666 11.1504 26.2563 10.1934 25.5726 9.50986ZM11.8974 13.4746H15.9999C16.547 13.4746 17.0939 13.8847 17.0939 14.5683C17.0939 15.2518 16.6837 15.6619 15.9999 15.6619H11.8974C11.3503 15.6619 10.8033 15.2518 10.8033 14.5683C10.8033 13.8847 11.3503 13.4746 11.8974 13.4746ZM20.1025 21.1306H11.8974C11.3503 21.1306 10.8033 20.7205 10.8033 20.0369C10.8033 19.3533 11.2136 18.9431 11.8974 18.9431H20.1025C20.6495 18.9431 21.1965 19.3533 21.1965 20.0369C21.1965 20.7205 20.6495 21.1306 20.1025 21.1306Z" fill="white"/>
</svg>
