<svg width="32" height="32" viewBox="0 0 32 32" fill="none" xmlns="http://www.w3.org/2000/svg">
<path d="M29.56 13.1546C29.7779 12.6523 29.8046 12.0877 29.6352 11.5671C29.4657 11.0465 29.1118 10.6057 28.64 10.3279L26.08 8.80793C26.0495 8.7916 26.023 8.76882 26.0023 8.74118C25.9816 8.71355 25.9671 8.68172 25.96 8.64793L25.2933 5.72793C25.1722 5.19572 24.8623 4.72546 24.421 4.40429C23.9797 4.08312 23.437 3.93282 22.8933 3.98126L19.92 4.24793C19.8869 4.25575 19.8524 4.25495 19.8197 4.24561C19.787 4.23628 19.7573 4.21871 19.7333 4.19459L17.48 2.22126C17.0685 1.86652 16.5433 1.67139 16 1.67139C15.4567 1.67139 14.9315 1.86652 14.52 2.22126L12.2667 4.19459C12.2427 4.21871 12.213 4.23628 12.1803 4.24561C12.1476 4.25495 12.1131 4.25575 12.08 4.24793L9.10665 3.98126C8.56178 3.93043 8.01712 4.08045 7.57512 4.40311C7.13313 4.72577 6.82427 5.19881 6.70665 5.73326L6.03999 8.65326C6.03283 8.68706 6.01839 8.71888 5.99766 8.74652C5.97694 8.77415 5.95043 8.79693 5.91999 8.81326L3.35999 10.3279C2.8882 10.6057 2.53426 11.0465 2.36481 11.5671C2.19537 12.0877 2.2221 12.6523 2.43999 13.1546L3.62665 15.9013C3.6526 15.9654 3.6526 16.0371 3.62665 16.1013L2.43999 18.8479C2.22319 19.3483 2.19707 19.9107 2.36656 20.429C2.53606 20.9473 2.88944 21.3857 3.35999 21.6613L5.93332 23.1999C5.98754 23.2381 6.02557 23.2952 6.03999 23.3599L6.70665 26.2799C6.82539 26.8134 7.13472 27.2852 7.5766 27.6068C8.01848 27.9284 8.56253 28.0776 9.10665 28.0266L12.08 27.7466C12.114 27.7444 12.1481 27.7491 12.1802 27.7606C12.2123 27.772 12.2417 27.79 12.2667 27.8133L14.52 29.7866C14.9324 30.1393 15.4573 30.3331 16 30.3331C16.5427 30.3331 17.0675 30.1393 17.48 29.7866L19.7333 27.8133C19.7582 27.79 19.7876 27.772 19.8197 27.7606C19.8518 27.7491 19.886 27.7444 19.92 27.7466L22.8933 28.0266C23.4374 28.0776 23.9815 27.9284 24.4234 27.6068C24.8653 27.2852 25.1746 26.8134 25.2933 26.2799L25.96 23.3599C25.9671 23.3261 25.9816 23.2943 26.0023 23.2667C26.023 23.239 26.0495 23.2163 26.08 23.1999L28.64 21.6666C29.1105 21.391 29.4639 20.9527 29.6334 20.4344C29.8029 19.9161 29.7768 19.3536 29.56 18.8533L28.3733 16.1066C28.3474 16.0425 28.3474 15.9707 28.3733 15.9066L29.56 13.1546ZM21.9867 13.3146L15.3733 20.0879C15.1794 20.2738 14.9219 20.3787 14.6533 20.3813C14.4429 20.3832 14.2373 20.3178 14.0667 20.1946L10.1467 17.3946C9.93094 17.239 9.78588 17.0041 9.74337 16.7415C9.70086 16.479 9.76439 16.2103 9.91999 15.9946C10.0756 15.7789 10.3105 15.6338 10.573 15.5913C10.8356 15.5488 11.1043 15.6123 11.32 15.7679L14.5333 18.0746L20.56 11.9146C20.6515 11.8202 20.7608 11.7449 20.8817 11.6931C21.0025 11.6412 21.1324 11.6139 21.2639 11.6127C21.3953 11.6114 21.5257 11.6363 21.6475 11.6858C21.7693 11.7354 21.88 11.8086 21.9733 11.9013C22.1611 12.0877 22.2678 12.3406 22.2703 12.6052C22.2728 12.8698 22.1709 13.1247 21.9867 13.3146Z" fill="white"/>
</svg>
