<svg width="32" height="32" viewBox="0 0 32 32" fill="none" xmlns="http://www.w3.org/2000/svg">
<path d="M15.9999 1.33337C13.0991 1.33337 10.2635 2.19356 7.85156 3.80515C5.43964 5.41675 3.55978 7.70737 2.44969 10.3874C1.33961 13.0673 1.04916 16.0163 1.61507 18.8614C2.18099 21.7064 3.57786 24.3198 5.62903 26.3709C7.6802 28.4221 10.2935 29.819 13.1386 30.3849C15.9837 30.9508 18.9326 30.6604 21.6126 29.5503C24.2926 28.4402 26.5832 26.5603 28.1948 24.1484C29.8064 21.7365 30.6666 18.9008 30.6666 16C30.662 12.1116 29.1153 8.38375 26.3658 5.63421C23.6162 2.88467 19.8884 1.33796 15.9999 1.33337ZM20.9426 20.9427C20.6926 21.1927 20.3535 21.3331 19.9999 21.3331C19.6464 21.3331 19.3073 21.1927 19.0573 20.9427L15.0573 16.9427C14.8072 16.6927 14.6667 16.3536 14.6666 16V8.00004C14.6666 7.64642 14.8071 7.30728 15.0571 7.05723C15.3072 6.80718 15.6463 6.66671 15.9999 6.66671C16.3535 6.66671 16.6927 6.80718 16.9427 7.05723C17.1928 7.30728 17.3333 7.64642 17.3333 8.00004V15.448L20.9426 19.0574C21.1926 19.3074 21.333 19.6465 21.333 20C21.333 20.3536 21.1926 20.6927 20.9426 20.9427Z" fill="white"/>
</svg>
