<svg width="32" height="32" viewBox="0 0 32 32" fill="none" xmlns="http://www.w3.org/2000/svg">
<path d="M13.294 7.43605L14.097 9.66605C14.989 12.141 16.938 14.09 19.413 14.982L21.643 15.785C21.844 15.858 21.844 16.143 21.643 16.215L19.413 17.018C16.938 17.91 14.989 19.859 14.097 22.334L13.294 24.564C13.221 24.765 12.936 24.765 12.864 24.564L12.061 22.334C11.169 19.859 9.22001 17.91 6.74501 17.018L4.51501 16.215C4.31401 16.142 4.31401 15.857 4.51501 15.785L6.74501 14.982C9.22001 14.09 11.169 12.141 12.061 9.66605L12.864 7.43605C12.936 7.23405 13.221 7.23405 13.294 7.43605Z" fill="white"/>
<path d="M23.3321 2.07701L23.7391 3.20601C24.1911 4.45901 25.1781 5.44601 26.4311 5.89801L27.5601 6.30501C27.6621 6.34201 27.6621 6.48601 27.5601 6.52301L26.4311 6.93001C25.1781 7.38201 24.1911 8.36901 23.7391 9.62201L23.3321 10.751C23.2951 10.853 23.1511 10.853 23.1141 10.751L22.7071 9.62201C22.2551 8.36901 21.2681 7.38201 20.0151 6.93001L18.8861 6.52301C18.7841 6.48601 18.7841 6.34201 18.8861 6.30501L20.0151 5.89801C21.2681 5.44601 22.2551 4.45901 22.7071 3.20601L23.1141 2.07701C23.1511 1.97401 23.2961 1.97401 23.3321 2.07701Z" fill="white"/>
<path d="M23.3321 21.25L23.7391 22.379C24.1911 23.632 25.1781 24.619 26.4311 25.071L27.5601 25.478C27.6621 25.515 27.6621 25.659 27.5601 25.696L26.4311 26.103C25.1781 26.555 24.1911 27.542 23.7391 28.795L23.3321 29.924C23.2951 30.026 23.1511 30.026 23.1141 29.924L22.7071 28.795C22.2551 27.542 21.2681 26.555 20.0151 26.103L18.8861 25.696C18.7841 25.659 18.7841 25.515 18.8861 25.478L20.0151 25.071C21.2681 24.619 22.2551 23.632 22.7071 22.379L23.1141 21.25C23.1511 21.148 23.2961 21.148 23.3321 21.25Z" fill="white"/>
</svg>
